<?xml version="1.0" encoding="iso-8859-1"?>
<!-- Generator: Adobe Illustrator 20.1.0, SVG Export Plug-In . SVG Version: 6.00 Build 0)  -->
<svg xmlns="http://www.w3.org/2000/svg" xmlns:xlink="http://www.w3.org/1999/xlink" version="1.1" id="&#1057;&#1083;&#1086;&#1081;_1" x="0px" y="0px" viewBox="0 0 64 64" style="enable-background:new 0 0 64 64;" xml:space="preserve">
<linearGradient id="SVGID_1__44016" gradientUnits="userSpaceOnUse" x1="31" y1="48.75" x2="31" y2="55.2548" spreadMethod="reflect">
	<stop offset="0" style="stop-color:#6DC7FF"/>
	<stop offset="1" style="stop-color:#E6ABFF"/>
</linearGradient>
<circle style="fill:url(#SVGID_1__44016);" cx="31" cy="52" r="2"/>
<linearGradient id="SVGID_2__44016" gradientUnits="userSpaceOnUse" x1="32" y1="6" x2="32" y2="59.0147" spreadMethod="reflect">
	<stop offset="0" style="stop-color:#1A6DFF"/>
	<stop offset="1" style="stop-color:#C822FF"/>
</linearGradient>
<path style="fill:url(#SVGID_2__44016);" d="M49.5,28c0.827,0,1.5-0.673,1.5-1.5v-5c0-0.827-0.673-1.5-1.5-1.5H49v-9c0-2.757-2.243-5-5-5  H18c-2.757,0-5,2.243-5,5v42c0,2.757,2.243,5,5,5h26c2.757,0,5-2.243,5-5V40h0.5c0.827,0,1.5-0.673,1.5-1.5v-5  c0-0.827-0.673-1.5-1.5-1.5H49v-4H49.5z M18,8h26c1.654,0,3,1.346,3,3v1H15v-1C15,9.346,16.346,8,18,8z M47,14v32H15V14H47z M44,56  H18c-1.654,0-3-1.346-3-3v-5h32v5C47,54.654,45.654,56,44,56z"/>
<linearGradient id="SVGID_3__44016" gradientUnits="userSpaceOnUse" x1="31" y1="6" x2="31" y2="59.0147" spreadMethod="reflect">
	<stop offset="0" style="stop-color:#1A6DFF"/>
	<stop offset="1" style="stop-color:#C822FF"/>
</linearGradient>
<rect x="28" y="9" style="fill:url(#SVGID_3__44016);" width="6" height="2"/>
<linearGradient id="SVGID_4__44016" gradientUnits="userSpaceOnUse" x1="31" y1="6" x2="31" y2="59.0147" spreadMethod="reflect">
	<stop offset="0" style="stop-color:#1A6DFF"/>
	<stop offset="1" style="stop-color:#C822FF"/>
</linearGradient>
<path style="fill:url(#SVGID_4__44016);" d="M23,40h16c1.654,0,3-1.346,3-3V23c0-1.654-1.346-3-3-3H23c-1.654,0-3,1.346-3,3v14  C20,38.654,21.346,40,23,40z M22,23c0-0.552,0.448-1,1-1h16c0.552,0,1,0.448,1,1v14c0,0.552-0.448,1-1,1H23c-0.552,0-1-0.448-1-1V23  z"/>
<linearGradient id="SVGID_5__44016" gradientUnits="userSpaceOnUse" x1="31" y1="6" x2="31" y2="59.0147" spreadMethod="reflect">
	<stop offset="0" style="stop-color:#1A6DFF"/>
	<stop offset="1" style="stop-color:#C822FF"/>
</linearGradient>
<rect x="26" y="27" style="fill:url(#SVGID_5__44016);" width="10" height="2"/>
<linearGradient id="SVGID_6__44016" gradientUnits="userSpaceOnUse" x1="31" y1="6" x2="31" y2="59.0147" spreadMethod="reflect">
	<stop offset="0" style="stop-color:#1A6DFF"/>
	<stop offset="1" style="stop-color:#C822FF"/>
</linearGradient>
<rect x="26" y="31" style="fill:url(#SVGID_6__44016);" width="10" height="2"/>
</svg>
